<svg xmlns="http://www.w3.org/2000/svg" width="98.519" height="122.1" xmlns:v="https://vecta.io/nano"><defs><linearGradient id="A" x1="48.252" y1="-.813" x2="48.733" y2="117.126" gradientUnits="userSpaceOnUse"><stop offset="0" stop-color="#f58357"/><stop offset=".245" stop-color="#f58357"/><stop offset=".245" stop-color="#0cabe4"/><stop offset="1" stop-color="#007fc7"/></linearGradient></defs><path transform="matrix(.999992 -.004077 0 1 0 0)" d="M8.094 39.636h78.021v60.753H8.094z" fill="#fff" stroke="#fff" stroke-width=".2" paint-order="stroke fill markers"/><path d="M94.4 30.3c0-.5-.5-.9-1-.8l-9.7-1.4h-.3-13.5c-.8-6.3-3.2-16.9-7.8-23C59.6 1.7 56.6 0 53.4 0c-2 0-4 .7-5.6 1.9C46.2.9 44.2.5 42.3.6c-9.2.9-12 14.4-12.6 27.5l-24.1.3c-.6 0-1.1.4-1.1 1L2.2 69.7 0 109.4c0 .5.4.9.9 1l38.7 5.9 38.3 5.8c.3 0 .6 0 .9-.2h0l18.9-12.1c.6-.3.9-.9.8-1.6zm-41-26.7c1.9.1 3.7 1 4.8 2.5 4.7 5.1 7 15.9 8 22h-5.8C59.1 20 55.8 9.7 50.8 4.3c.8-.5 1.8-.7 2.6-.7zm-5.3 3.1c4.4 4.5 7.4 13.9 8.6 21.4H42.6c.4-6.9 1.8-16.5 5.5-21.4zM31.5 79.4L21 83.2c-1.8.7-2.1 1.6-.6 2.1 2 .5 4.1.4 6.1-.3l5-1.8v5.3l-1 .2c-5.2.9-10.6.4-15.7-1.3-4.9-1.4-5.8-4.3-3.5-6 1.7-1.1 3.6-2 5.6-2.7l14.6-5.2zM42.8 4.2c.8-.1 1.7 0 2.4.4-4.6 6.3-5.9 17.3-6.3 23.5h-5.5c.7-14.8 4-23.4 9.4-23.9zm.9 52.6v37.7l-10.2-3.2v-45c4.7 1 9.4 2.3 14 3.8C56.1 53.1 59 56.7 59 65c0 8.1-5 11.2-11.3 8.1v-15c0-1.8-.3-3.4-2-3.9-1.2-.3-2 .8-2 2.6zM72 83.2c-1.2 1.5-4.2 2.6-4.2 2.6l-22.2 8v-5.9L62 82.1c1.8-.7 2.1-1.6.6-2.1-2-.5-4.1-.4-6.1.3l-10.9 3.8V78l.6-.2c2.5-.8 5-1.3 7.6-1.6 4.8-.5 9.6.1 14.1 1.7 4.8 1.5 5.3 3.8 4.1 5.3z" fill-rule="evenodd" fill="url(#A)"/><rect width="37.571" height="48.922" x="-76.101" y="18.66" rx="10" ry="24.461" opacity="0" fill="#3f5f5c" fill-opacity=".347" stroke="#fff" stroke-width=".2" paint-order="stroke fill markers"/></svg>