<?xml version="1.0" encoding="UTF-8" standalone="no"?>
<!-- Generator: Adobe Illustrator 23.0.1, SVG Export Plug-In . SVG Version: 6.00 Build 0)  -->

<svg
   xmlns:dc="http://purl.org/dc/elements/1.1/"
   xmlns:cc="http://creativecommons.org/ns#"
   xmlns:rdf="http://www.w3.org/1999/02/22-rdf-syntax-ns#"
   xmlns:svg="http://www.w3.org/2000/svg"
   xmlns="http://www.w3.org/2000/svg"
   xmlns:sodipodi="http://sodipodi.sourceforge.net/DTD/sodipodi-0.dtd"
   xmlns:inkscape="http://www.inkscape.org/namespaces/inkscape"
   version="1.1"
   id="svg2"
   x="0px"
   y="0px"
   viewBox="0 0 13197.495 7563.1117"
   xml:space="preserve"
   sodipodi:docname="xbox-gold.svg"
   width="13197.495"
   height="7563.1118"
   inkscape:version="0.92.5 (2060ec1f9f, 2020-04-08)"><metadata
   id="metadata33"><rdf:RDF><cc:Work
       rdf:about=""><dc:format>image/svg+xml</dc:format><dc:type
         rdf:resource="http://purl.org/dc/dcmitype/StillImage" /></cc:Work></rdf:RDF></metadata><defs
   id="defs31" /><sodipodi:namedview
   pagecolor="#ffffff"
   bordercolor="#666666"
   borderopacity="1"
   objecttolerance="10"
   gridtolerance="10"
   guidetolerance="10"
   inkscape:pageopacity="0"
   inkscape:pageshadow="2"
   inkscape:window-width="2011"
   inkscape:window-height="1113"
   id="namedview29"
   showgrid="false"
   inkscape:zoom="0.089399717"
   inkscape:cx="5118.9588"
   inkscape:cy="5474.5664"
   inkscape:window-x="0"
   inkscape:window-y="26"
   inkscape:window-maximized="0"
   inkscape:current-layer="g26" />
<style
   type="text/css"
   id="style2">
	.st0{fill:#177D3E;}
	.st1{fill-rule:evenodd;clip-rule:evenodd;fill:#696969;}
</style>
<g
   id="g26"
   transform="translate(-15878.446,-3656.0241)">
	<rect
   style="opacity:1;fill:#ffffff;fill-opacity:1;fill-rule:nonzero;stroke:#ffffff;stroke-width:0.2;stroke-miterlimit:4;stroke-dasharray:none;stroke-opacity:1;paint-order:stroke fill markers"
   id="rect830"
   width="4540.3804"
   height="4540.3804"
   x="20341.322"
   y="3738.6711"
   rx="2354.083"
   ry="2354.083" /><path
   class="st0"
   d="m 2906.1239,7998.3206 c -85,10.6 -194.3,36.1 -263.3,63 -76.6,29 -170.6,75.8 -170.6,85 0,5.7 16.7,10.6 43.9,13.5 97.5,11.3 278.6,88.5 442.3,186.9 39.7,24.1 78.7,43.9 85.7,43.9 7.7,0 46,-19.8 85,-43.9 93.3,-57.3 247.3,-133.1 318.3,-157.2 32,-10.6 82.2,-22.7 112.1,-27.6 36.2,-5 55,-11.3 55,-17 0,-20.5 -162.3,-90.6 -275.1,-118.9 -148.4,-37.6 -284.9,-46.1 -433.3,-27.7 z m -673.5,329.9 c -186,192.6 -287,401.4 -321.1,669 -16,124.6 -11.8,230.8 14.6,366.7 25.8,131 85,278.2 154.6,382.3 46,69.4 53.6,68.7 59.2,-5.7 21.6,-278.9 234.7,-662 589.2,-1055.6 30.6,-34.7 56.4,-67.3 56.4,-71.5 0,-9.9 -105.9,-114.7 -183.9,-182.7 -104.5,-90.6 -240.3,-174.9 -280,-174.9 -15.2,0.2 -34.7,16.4 -89,72.4 z m 1481.4,-51.7 c -88.5,43.2 -207.6,133.8 -322.5,246.4 -46,44.6 -83.6,86.4 -83.6,92 0,5.6 34.1,48.9 75.9,96.3 300.9,340.5 491.7,665.5 550.9,937.4 7.7,34.7 13.9,82.1 13.9,106.2 0,39.6 1.4,44.6 13.2,44.6 16,0 79.4,-99.1 119.1,-187.6 80.8,-176.3 109.3,-322.8 102.4,-525.3 -7,-234.3 -69.6,-426.2 -198.5,-610.3 -59.2,-85 -189.4,-220.2 -211.7,-220.2 -8.9,0 -35.4,9.2 -59.1,20.5 z m -747.3,625.1 c -165.1,145.8 -383.1,375.2 -507,534.5 -131.6,168.5 -273,396.5 -273,438.9 0,13.5 73.1,89.2 139.3,145.1004 232.6,195.4 570.4,286 888,238.6 245.2,-36.8 468,-150.1 653.3,-331.3004 28.6,-27.6 32.7,-35.4 32.7,-60.9 -0.7,-130.3 -252.1,-453.1 -667.9,-857.4 -112.8,-109.7 -175.5,-165.7 -185.3,-165.7 -8.4,0.2 -42.5,25 -80.1,58.2 z"
   id="path4"
   inkscape:connector-curvature="0"
   style="fill:#177d3e" />
	<g
   id="g14"
   transform="matrix(1.1918949,0,0,1.1918949,12882.141,8707.5751)"
   style="fill:#107c10;fill-opacity:1;stroke-width:0.83900017">
		<polygon
   class="st0"
   points="3173.6,1170.3 2513.9,2069.1 2739.8,2069.1 3287.3,1325.1 3835.4,2069.1 4061.1,2069.1 3401.4,1170.3 4003.5,353.1 3777.8,353.1 3287.1,1019.8 2796.9,353.1 2572,353.1 "
   id="polygon6"
   style="fill:#107c10;fill-opacity:1;stroke-width:0.83900017" />
		<polygon
   class="st0"
   points="7671,1170.3 7011.6,2069.4 7237.5,2069.4 7785.3,1325.1 8333.3,2069.4 8559,2069.4 7899.3,1170.3 8500.9,353.1 8275.5,353.1 7785.3,1019.8 7294.5,353.1 7068.9,353.1 "
   id="polygon8"
   style="fill:#107c10;fill-opacity:1;stroke-width:0.83900017" />
		<path
   class="st0"
   d="m 6370.3,313.3 c -482,0 -818.8,368.8 -818.8,896.7 0,528.7 336.9,897.2 818.8,897.2 481.7,0 817.5,-368.5 817.5,-897.2 0,-527.9 -335.8,-896.7 -817.5,-896.7 z m 0,181.7 c 366.7,0 622.6,294 622.6,715.1 0,421.4 -256,715.9 -622.6,715.9 -367.2,0 -624.5,-294.5 -624.5,-715.9 0,-421.1 257.3,-715.1 624.5,-715.1 z"
   id="path10"
   inkscape:connector-curvature="0"
   style="fill:#107c10;fill-opacity:1;stroke-width:0.83900017" />
		<path
   class="st0"
   d="M 4154.8,353.1 V 1093 h -232.1 c -30.2,39.2 -98.5,133.4 -124.6,172.1 h 356.7 v 804 l 697,0.3 c 377.5,0 612.1,-191.8 612.1,-501 0,-135.1 -51.1,-250.1 -148.1,-333.2 -35.8,-30.5 -74.7,-54.2 -112.4,-71.6 124.5,-67.6 206.2,-195.3 206.2,-343.5 0,-109.8 -40.4,-467 -557.8,-467 z m 192.7,179.1 h 504.3 c 136.6,0 365.1,33.9 365.1,272.7 0,180.5 -133.2,288.1 -365.1,288.1 h -504.3 z m 0,733.2 h 504.3 c 191.2,0 420,52.9 420,299.2 0,283.2 -263,325.6 -420,325.6 h -504.3 z"
   id="path12"
   inkscape:connector-curvature="0"
   style="fill:#107c10;fill-opacity:1;stroke-width:0.83900017" />
	</g>
	<g
   id="g24"
   transform="matrix(1.1918949,0,0,1.1918949,12882.141,8707.5751)"
   style="stroke-width:0.83900017;fill:#107c10;fill-opacity:1">
		<polygon
   class="st1"
   points="9164.4,352.8 9164.4,2067.8 10305.6,2067.8 10305.6,1877.8 9370.3,1877.8 9370.8,352.3 "
   id="polygon16"
   style="clip-rule:evenodd;fill:#107c10;fill-rule:evenodd;stroke-width:0.83900017;fill-opacity:1" />
		<path
   class="st1"
   d="m 13585.5,352.5 c 0,0 -814.3,0.3 -1214.2,0.3 v 1715 h 1215.3 v -190 h -1009.4 v -585.6 l 934,0.8 1.4,-190.8 h -935.3 V 542.8 h 1007.5 z"
   id="path18"
   inkscape:connector-curvature="0"
   style="clip-rule:evenodd;fill:#107c10;fill-rule:evenodd;stroke-width:0.83900017;fill-opacity:1" />
		<rect
   x="10432.3"
   y="352.79999"
   class="st1"
   width="200.8"
   height="1715"
   id="rect20"
   style="clip-rule:evenodd;fill:#107c10;fill-rule:evenodd;stroke-width:0.83900017;fill-opacity:1" />
		<polygon
   class="st1"
   points="11003.1,352.8 10786.4,352.8 11388.7,2067.8 11652.8,2067.8 12260.3,352.8 12043.8,352.8 11520.6,1830.5 "
   id="polygon22"
   style="clip-rule:evenodd;fill:#107c10;fill-rule:evenodd;stroke-width:0.83900017;fill-opacity:1" />
	</g>
<path
   id="path845"
   d="m 22634.805,5555.001 c 2.63,0 6.576,2.6302 7.891,3.9453 707.513,537.8681 1920.018,1870.0453 1550.48,2246.1583 -416.881,364.277 -962.639,585.211 -1558.371,585.211 -597.047,0 -1141.49,-220.934 -1558.371,-585.211 -369.538,-376.113 842.967,-1708.2902 1550.481,-2246.1583 1.315,-2.6302 5.26,-3.9453 7.89,-3.9453 z m 1232.231,-1553.1106 c -361.647,-214.3582 -754.857,-345.8663 -1232.231,-345.8663 -477.374,0 -870.584,131.5081 -1233.546,345.8663 -3.945,2.6301 -6.575,7.8905 -3.945,11.8357 1.315,3.9452 6.575,5.2603 11.836,3.9452 458.963,-98.631 1154.641,297.2083 1220.395,336.6608 1.315,1.3151 2.63,1.3151 5.26,1.3151 2.63,0 3.945,-1.3151 5.26,-1.3151 65.754,-39.4525 762.747,-435.2918 1220.396,-336.6608 5.26,1.3151 9.205,0 11.835,-3.9452 1.315,-3.9452 0,-9.2056 -5.26,-11.8357 z m -2889.233,332.7155 c -3.945,2.6301 -7.89,5.2603 -10.521,7.8904 -432.661,430.0315 -699.623,1023.1331 -699.623,1680.6736 0,539.1832 180.166,1036.2838 483.95,1434.7537 2.63,3.945 7.891,6.575 13.151,3.945 3.945,-2.63 3.945,-7.891 2.63,-11.836 -181.481,-558.9093 741.706,-1912.1276 1217.765,-2478.9275 1.315,-1.3151 2.63,-3.9453 2.63,-6.5754 0,-3.9453 -1.315,-5.2604 -3.945,-7.8905 -721.979,-718.0343 -966.585,-641.7596 -1006.037,-622.0333 z m 2306.652,622.0333 c -2.63,1.3151 -3.945,3.9452 -3.945,7.8905 0,2.6301 1.315,5.2603 2.63,6.5754 476.059,566.7999 1399.246,1920.0182 1219.08,2477.6125 -1.315,3.945 -1.315,9.206 2.63,11.836 3.946,2.63 9.206,0 13.151,-3.945 303.784,-398.47 483.95,-894.2555 483.95,-1434.7538 0,-657.5405 -268.277,-1250.642 -699.623,-1679.3585 -2.63,-2.6301 -6.576,-6.5754 -10.521,-7.8904 -40.767,-19.7263 -285.372,-96.001 -1007.352,622.0333 z"
   class="st0"
   inkscape:connector-curvature="0"
   style="fill:#107c10;stroke-width:0.99999994"
   sodipodi:nodetypes="sccsccscsccccsccccccsccccscccsccccsccc" /></g>
<style
   id="style843"
   type="text/css">
	.st0{fill:#107C10;}
</style></svg>