<?xml version="1.0" encoding="UTF-8" standalone="no"?>
<!-- Created with Inkscape (http://www.inkscape.org/) -->

<svg
   xmlns:dc="http://purl.org/dc/elements/1.1/"
   xmlns:cc="http://creativecommons.org/ns#"
   xmlns:rdf="http://www.w3.org/1999/02/22-rdf-syntax-ns#"
   xmlns:svg="http://www.w3.org/2000/svg"
   xmlns="http://www.w3.org/2000/svg"
   xmlns:sodipodi="http://sodipodi.sourceforge.net/DTD/sodipodi-0.dtd"
   xmlns:inkscape="http://www.inkscape.org/namespaces/inkscape"
   version="1.1"
   id="svg2"
   width="368.52893"
   height="418.17316"
   viewBox="0 0 368.52893 418.17316"
   sodipodi:docname="xbox-png-download-best-xbox-png-clipartmagm-15.png.svg"
   inkscape:version="0.92.5 (2060ec1f9f, 2020-04-08)">
  <metadata
     id="metadata8">
    <rdf:RDF>
      <cc:Work
         rdf:about="">
        <dc:format>image/svg+xml</dc:format>
        <dc:type
           rdf:resource="http://purl.org/dc/dcmitype/StillImage" />
        <dc:title></dc:title>
      </cc:Work>
    </rdf:RDF>
  </metadata>
  <defs
     id="defs6" />
  <sodipodi:namedview
     pagecolor="#ffffff"
     bordercolor="#666666"
     borderopacity="1"
     objecttolerance="10"
     gridtolerance="10"
     guidetolerance="10"
     inkscape:pageopacity="0"
     inkscape:pageshadow="2"
     inkscape:window-width="2473"
     inkscape:window-height="1239"
     id="namedview4"
     showgrid="false"
     inkscape:zoom="1.4638351"
     inkscape:cx="259.00691"
     inkscape:cy="188.71059"
     inkscape:window-x="0"
     inkscape:window-y="26"
     inkscape:window-maximized="0"
     inkscape:current-layer="svg2" />
  <path
     style="fill:#117d10;fill-opacity:1;fill-rule:evenodd;stroke:#117d10;stroke-width:1px;stroke-linecap:butt;stroke-linejoin:miter;stroke-opacity:1"
     d="M 0.50117939,121.85445 298.34894,59.688975 l 33.47371,21.860386 36.20627,6.14824 V 388.96104 L 299.03207,417.6528 1.1843094,357.53674 Z"
     id="path817"
     inkscape:connector-curvature="0" />
  <path
     style="fill:none;fill-rule:evenodd;stroke:#117d10;stroke-width:10;stroke-linecap:butt;stroke-linejoin:miter;stroke-miterlimit:4;stroke-dasharray:none;stroke-opacity:1"
     d="M 72.230569,108.19171 C 66.506709,49.469523 104.60383,8.8867388 137.1286,5.0380128 209.03675,3.2078668 219.17587,65.273475 218.4219,102.04348"
     id="path827"
     inkscape:connector-curvature="0"
     sodipodi:nodetypes="ccc" />
  <path
     style="fill:none;fill-rule:evenodd;stroke:#117d10;stroke-width:10;stroke-linecap:butt;stroke-linejoin:miter;stroke-miterlimit:4;stroke-dasharray:none;stroke-opacity:1"
     d="m 107.34172,119.00739 c -5.72386,-58.722185 32.37326,-99.304967 64.89803,-103.153693 71.90815,-1.830145 82.04727,60.235454 81.2933,97.005463"
     id="path827-3"
     inkscape:connector-curvature="0"
     sodipodi:nodetypes="ccc" />
  <style
     id="style865"
     type="text/css">
	.st0{fill:#107C10;}
</style>
  <path
     id="path867"
     d="m 157.03959,229.40716 c 0.0923,0 0.23054,0.0923 0.27664,0.13833 24.80615,18.8582 67.31779,65.56567 54.36143,78.7526 -14.61626,12.77191 -33.75111,20.51807 -54.63807,20.51807 -20.93306,0 -40.02182,-7.74616 -54.63807,-20.51807 -12.956381,-13.18693 29.55527,-59.8944 54.36142,-78.7526 0.0461,-0.0923 0.18444,-0.13833 0.27665,-0.13833 z m 43.20327,-54.45363 c -12.67973,-7.51562 -26.46605,-12.12643 -43.20327,-12.12643 -16.73723,0 -30.52355,4.61081 -43.24938,12.12643 -0.13833,0.0923 -0.23054,0.27664 -0.13833,0.41497 0.0461,0.13832 0.23055,0.18443 0.41498,0.13832 16.09171,-3.4581 40.48289,10.42042 42.7883,11.80367 0.0461,0.0461 0.0923,0.0461 0.18443,0.0461 0.0923,0 0.13832,-0.0461 0.18443,-0.0461 2.30541,-1.38325 26.74269,-15.26177 42.7883,-11.80367 0.18442,0.0461 0.32275,0 0.41496,-0.13832 0.0461,-0.13833 0,-0.32276 -0.18442,-0.41497 z M 98.943409,186.61887 c -0.13832,0.0923 -0.27665,0.18443 -0.36887,0.27664 -15.16955,15.07735 -24.52949,35.87209 -24.52949,58.92613 0,18.90431 6.31681,36.33316 16.96778,50.3039 0.0923,0.13833 0.27664,0.23055 0.46108,0.13833 0.13832,-0.0923 0.13832,-0.27664 0.0922,-0.41497 -6.36291,-19.59594 26.004941,-67.04115 42.696071,-86.91373 0.0461,-0.0461 0.0923,-0.13831 0.0923,-0.23054 0,-0.13832 -0.0461,-0.18443 -0.13832,-0.27665 -25.31333,-25.175 -33.88943,-22.50074 -35.272681,-21.80911 z m 80.873571,21.80911 c -0.0923,0.0461 -0.13833,0.13833 -0.13833,0.27665 0,0.0923 0.0461,0.18444 0.0923,0.23054 16.69112,19.87258 49.05899,67.31779 42.74219,86.86763 -0.0461,0.13831 -0.0461,0.32274 0.0923,0.41497 0.13833,0.0923 0.32276,0 0.46109,-0.13834 10.65095,-13.97074 16.96776,-31.35348 16.96776,-50.3039 0,-23.05405 -9.40604,-43.84879 -24.52948,-58.88002 -0.0923,-0.0923 -0.23055,-0.23053 -0.36888,-0.27664 -1.42934,-0.69163 -10.00545,-3.36589 -35.31878,21.80911 z"
     class="st0"
     inkscape:connector-curvature="0"
     style="fill:#ffffff;fill-opacity:1;stroke-width:1"
     sodipodi:nodetypes="sccsccscsccccsccccccsccccscccsccscsccc" />
</svg>
